<?xml version="1.0" encoding="utf-8"?>
<svg id="eNDI8p6v19n1" xmlns="http://www.w3.org/2000/svg" viewBox="0 0 1200 1200" shape-rendering="geometricPrecision" text-rendering="geometricPrecision" xmlns:bx="https://boxy-svg.com">
  <defs>
    <bx:export>
      <bx:file format="svg"/>
    </bx:export>
  </defs>
  <path d="M 0 0 C 0.595 0.533 66.918 69.977 70.035 73.285 C 70.707 73.999 71.38 74.713 72.072 75.449 C 73.36 76.816 74.649 78.182 75.939 79.547 C 79.435 83.261 82.777 87.046 86 91 C 89.96 88.12 92.958 84.836 96.113 81.141 C 97.999 79.001 99.966 76.999 102 75 C 104.477 72.561 106.82 70.093 109.063 67.438 C 138.232 33.856 177.908 11.342 222.772 8.129 C 268.869 5.462 310.623 20.434 345.262 50.852 C 352.228 57.062 358.349 63.545 364 71 C 364.425 71.545 364.85 72.089 365.288 72.65 C 394.604 110.248 406.354 157.792 400.875 204.938 C 396.618 237.149 384.531 267.688 364 293 C 363.554 293.553 363.109 294.105 362.649 294.674 C 334.566 329.244 294.746 350.726 250.438 355.75 C 248.627 355.864 246.813 355.942 245 356 C 244.333 356.026 243.666 356.052 242.979 356.078 C 202.497 357.47 161.567 345.22 131 318 C 130.21 317.318 129.42 316.636 128.605 315.934 C 119.039 307.541 109.803 298.517 101.578 288.797 C 99.145 286.026 96.494 283.484 93.867 280.898 C 91.401 278.391 89.196 275.746 87 273 C 86.276 273.726 85.551 274.451 84.805 275.199 C 83.065 276.936 12.326 351.933 10.688 353.875 C -1.978 368.469 -18.576 380.037 -35 390 C -36.041 390.638 -36.041 390.638 -37.103 391.289 C -86.429 421.174 -146.191 427.608 -201.804 414.798 C -237.112 405.984 -268.964 388.182 -296 364 C -296.562 363.499 -297.125 362.999 -297.704 362.483 C -303.622 357.191 -369.28 287.429 -372.266 283.957 C -375.037 280.83 -378.011 277.918 -381 275 C -381.66 274.34 -382.32 273.68 -383 273 C -383.837 273.897 -384.673 274.794 -385.535 275.719 C -388 278.362 -390.467 281.003 -392.934 283.645 C -395.575 286.472 -412.459 304.49 -413.553 305.66 C -442.859 336.884 -483.618 354.644 -526.277 356.25 C -573.06 357.222 -614.228 338.936 -647.902 307.063 C -652.38 302.714 -660.637 292.183 -661.288 291.35 C -690.588 253.773 -702.341 206.196 -696.875 159.063 C -691.247 115.81 -669.596 72.256 -634.727 45.074 C -633.377 44.047 -633.377 44.047 -632 43 C -631.08 42.264 -630.159 41.528 -629.211 40.77 C -604.651 21.538 -572.274 8.994 -541 8 C -540.333 7.974 -539.666 7.948 -538.979 7.922 C -498.497 6.53 -457.567 18.78 -427 46 C -426.21 46.682 -425.42 47.364 -424.605 48.066 C -415.039 56.459 -405.803 65.483 -397.578 75.203 C -395.145 77.974 -392.494 80.516 -389.867 83.102 C -387.401 85.609 -385.196 88.254 -383 91 C -382.276 90.274 -292.239 -3.57 -291.332 -4.379 C -213.293 -76.574 -77.746 -77.288 0 0 Z M -271 16 C -271.733 16.624 -272.467 17.248 -273.223 17.891 C -278.934 22.887 -360.147 108.662 -363 112 C -359.232 117.549 -320.094 158.42 -317 161 C -308.721 152.217 -300.452 143.426 -292.222 134.597 C -287.989 130.057 -231.209 70.412 -229.25 68.5 C -213.578 54.364 -193.373 45.644 -173 41 C -171.951 40.754 -170.901 40.508 -169.82 40.254 C -137.586 34.055 -104.896 42.538 -77.746 60.105 C -75.093 61.996 -57.732 76.146 -53.676 81.035 C -51.881 83.14 127.598 274.643 130.672 277.992 C 154.29 303.684 183.373 323.433 219 327 C 219.63 327.066 220.26 327.131 220.909 327.199 C 244.793 329.537 268.14 325.797 290 316 C 291.173 315.475 292.346 314.951 293.555 314.41 C 306.546 308.262 317.644 299.933 328 290 C 328.944 289.131 329.887 288.262 330.859 287.367 C 358.434 261.466 372.793 223.398 374.027 186.03 C 374.61 145.781 360.716 108.231 333 79 C 332.558 78.526 332.116 78.051 331.661 77.563 C 306.758 50.944 273.101 37.444 237 36 C 200.726 35.333 167.267 50.187 141.219 74.836 C 135.282 80.591 106.705 111.086 107 114 C 108.985 116.314 143.035 152.105 147 156 C 148.668 157.665 150.335 159.332 152 161 C 157.661 155.432 163.232 149.872 168.391 143.828 C 170.564 141.36 172.905 139.085 175.25 136.781 C 177.082 134.916 178.794 132.981 180.5 131 C 193.819 115.672 210.163 105.397 230.813 103.684 C 249.14 102.89 266.15 108.895 280 121 C 282.688 123.5 282.688 123.5 285 126 C 285.704 126.748 285.704 126.748 286.422 127.512 C 300.628 143.219 306.415 164.277 306.215 185.086 C 305.029 206.692 297.086 227.121 281 242 C 280.524 242.458 280.049 242.915 279.559 243.387 C 266.152 255.695 249.279 260.615 231.363 260.273 C 209.353 259.282 192.626 246.491 178 231 C 176.19 228.974 174.411 226.927 172.645 224.863 C 170.456 222.384 168.105 220.094 165.746 217.777 C 163.935 215.934 1.539 42.336 -0.227 40.293 C -35.968 -0.797 -83.447 -24.547 -137.695 -28.703 C -185.595 -31.749 -234.676 -15.339 -271 16 Z M -586.75 231.063 C -599.831 213.171 -604.45 190.393 -601.179 168.611 C -598.663 153.695 -593.086 140.631 -583.453 128.945 C -581.813 126.962 -574.973 120.237 -574 119.313 C -560.211 107.313 -543.118 103.017 -525.166 103.83 C -498.928 105.894 -482.69 123.722 -465.912 141.931 C -462.774 145.327 -287.815 332.256 -287.205 332.903 C -251.71 370.266 -203.414 391.288 -152 393 C -120.926 393.448 -90.869 386.697 -63 373 C -62.357 372.69 -61.713 372.38 -61.05 372.06 C -34.301 359.047 -11.72 338.058 7.53 315.686 C 9.266 313.695 64.147 255.338 67 252 C 63.022 246.211 24.021 204.167 23 203 C 20.117 204.296 -52.915 281.968 -53.848 282.956 C -76.487 306.75 -106.039 323.669 -139.556 325.11 C -150.808 325.357 -161.95 325.36 -173 323 C -173.987 322.79 -173.987 322.79 -174.995 322.576 C -203.139 316.329 -224.101 300.886 -244.187 280.937 C -244.853 280.277 -428.103 84.789 -430.5 82 C -451.631 57.647 -482.646 40.24 -515 37 C -515.63 36.934 -516.26 36.869 -516.909 36.801 C -560.217 32.561 -599.403 48.746 -629.755 79.268 C -657.2 107.751 -670.623 146.81 -670.03 186.037 C -668.757 223.558 -654.781 257.809 -629 285 C -628.558 285.474 -612.186 301.003 -603 307 C -601.588 307.938 -601.588 307.938 -600.148 308.895 C -570.487 327.401 -533.773 331.886 -500.023 324.289 C -466.518 316.085 -442.944 295.94 -420.071 271.22 C -417.95 268.947 -415.804 266.701 -413.648 264.461 C -412.952 263.733 -404.986 255.329 -401.524 251.476 C -405.506 248.24 -446.141 206.875 -449 204 C -451.352 206.214 -480.993 238.152 -481.504 238.746 C -493.05 251.276 -510.025 258.901 -526.828 260.324 C -545.234 260.848 -562.026 255.253 -576 243 M -230.199 108.43 C -231.305 109.707 -295.702 178.772 -298 181 C -296.516 184.487 -228.95 256.178 -226.812 258.688 C -206.518 282.011 -182.299 295.811 -151.121 298.223 C -125.423 299.045 -100.834 289.265 -82 272 C -75.218 265.551 -68.621 258.934 -62.57 251.789 C -60.173 249.058 -0.298 185.228 2 183 C 0.516 179.513 -68.091 106.779 -70.25 104.25 C -88.985 82.726 -112.212 68.793 -141 66 C -177.877 63.507 -206.293 82.018 -230.199 108.43 Z M -486.923 161.903 C -489.069 159.451 -498.676 147.993 -500.312 146 C -507.872 137.271 -516.958 132.41 -528.312 131.125 C -540.824 130.446 -551.205 135.254 -560.25 143.75 C -570.285 154.453 -575.148 168.38 -575 183 C -573.948 199.388 -568.516 212.12 -556.562 223.313 C -548.19 230.438 -539.556 233.404 -528.562 232.875 C -511.093 231.067 -501.045 219.337 -489.85 207.023 C -486.207 203.039 -482.494 199.119 -478.794 195.187 C -475.08 191.219 -471.504 187.154 -468 183 M 196.75 154.031 C 194.968 155.842 174.621 177.192 170.275 181.451 C 174.96 186.652 202.676 216.007 204.313 218 C 211.872 226.729 220.958 231.59 232.313 232.875 C 243.883 233.503 253.346 229.516 262.191 222.184 C 272.898 212.127 278.264 198.681 279.031 184.094 C 278.869 168.04 274.161 154.244 262.832 142.813 C 254.715 135.212 248.766 130.528 235.688 130.688 C 218.222 132.168 209.036 141.544 196.75 154.031 Z" transform="translate(747.997254 418)"/>
</svg>